<svg width="100" height="100" viewBox="0 0 100 100" fill="none" xmlns="http://www.w3.org/2000/svg">
<rect x="0.5" y="0.5" width="99" height="99" rx="49.5" fill="black"/>
<path d="M42.9688 34.375L42.4805 35.0098L40.625 37.5H29.6875V65.625H70.3125V37.5H59.375L57.5195 35.0098L57.0312 34.375H42.9688ZM44.5312 37.5H55.4688L57.3242 39.9902L57.8125 40.625H67.1875V62.5H32.8125V40.625H42.1875L42.6758 39.9902L44.5312 37.5ZM37.5 42.1875C36.6394 42.1875 35.9375 42.8894 35.9375 43.75C35.9375 44.6106 36.6394 45.3125 37.5 45.3125C38.3606 45.3125 39.0625 44.6106 39.0625 43.75C39.0625 42.8894 38.3606 42.1875 37.5 42.1875ZM50 42.1875C44.8425 42.1875 40.625 46.405 40.625 51.5625C40.625 56.72 44.8425 60.9375 50 60.9375C55.1575 60.9375 59.375 56.72 59.375 51.5625C59.375 46.405 55.1575 42.1875 50 42.1875ZM50 45.3125C53.4729 45.3125 56.25 48.0896 56.25 51.5625C56.25 55.0354 53.4729 57.8125 50 57.8125C46.5271 57.8125 43.75 55.0354 43.75 51.5625C43.75 48.0896 46.5271 45.3125 50 45.3125Z" fill="white"/>
<rect x="0.5" y="0.5" width="99" height="99" rx="49.5" stroke="#E6E6E6"/>
</svg>
